<?xml version="1.0" standalone="no"?>
<!DOCTYPE svg PUBLIC "-//W3C//DTD SVG 20010904//EN"
 "http://www.w3.org/TR/2001/REC-SVG-20010904/DTD/svg10.dtd">
<svg version="1.0" xmlns="http://www.w3.org/2000/svg"
 width="95.000000pt" height="95.000000pt" viewBox="0 0 95.000000 95.000000"
 preserveAspectRatio="xMidYMid meet">
<metadata>
Created by potrace 1.14, written by Peter Selinger 2001-2017
</metadata>
<g transform="translate(0.000000,95.000000) scale(0.100000,-0.100000)"
fill="#000000" stroke="none">
<path d="M80 485 l0 -285 58 0 59 0 -1 180 c-1 99 1 180 4 180 3 0 32 -45 63
-100 32 -55 61 -101 65 -104 4 -2 21 20 39 50 l31 54 -91 155 -92 155 -67 0
-68 0 0 -285z"/>
<path d="M617 733 c-13 -21 -76 -126 -141 -234 l-117 -196 32 -56 c29 -49 34
-54 44 -39 37 53 245 405 245 413 0 23 23 -7 56 -72 l35 -70 -39 -71 -39 -70
-33 54 c-22 35 -35 48 -38 38 -3 -8 -16 -32 -29 -54 -28 -44 -26 -60 17 -129
30 -47 30 -47 85 -47 l54 0 75 134 c42 73 76 138 76 144 0 6 -15 40 -34 74
-19 35 -52 97 -74 138 l-40 75 -55 3 c-55 3 -57 2 -80 -35z"/>
</g>
</svg>
